<?xml version="1.0" standalone="no"?>
<!DOCTYPE svg PUBLIC "-//W3C//DTD SVG 20010904//EN"
 "http://www.w3.org/TR/2001/REC-SVG-20010904/DTD/svg10.dtd">
<svg version="1.0" xmlns="http://www.w3.org/2000/svg"
 width="1440.000000pt" height="1302.000000pt" viewBox="0 0 1440.000000 1302.000000"
 preserveAspectRatio="xMidYMid meet">

<g transform="translate(0.000000,1302.000000) scale(0.100000,-0.100000)"
fill="#000000" stroke="none">
<path d="M5855 10094 c-336 -52 -599 -173 -800 -370 -179 -176 -255 -331 -295
-606 -12 -82 -11 -105 10 -243 30 -198 157 -409 340 -566 174 -151 311 -235
716 -438 220 -110 395 -206 534 -292 134 -83 239 -155 248 -170 9 -14 -4 -25
-86 -75 -53 -31 -107 -63 -119 -71 -76 -45 -237 -130 -598 -313 -364 -184
-521 -269 -572 -306 -17 -13 -34 -24 -37 -24 -13 0 -135 -98 -186 -150 -99
-98 -176 -225 -205 -337 -19 -69 -21 -239 -5 -307 28 -125 138 -271 272 -363
158 -109 309 -170 551 -222 23 -5 69 -15 102 -23 78 -17 443 -18 500 -1 22 6
63 17 90 23 62 15 143 38 173 51 12 5 32 13 45 18 205 82 355 179 503 326 140
139 186 203 273 380 53 108 82 188 101 275 7 30 16 65 20 76 15 39 32 347 26
449 -11 162 -40 265 -114 405 -45 84 -70 118 -165 217 -44 45 -77 86 -75 91 1
5 54 51 116 102 189 154 514 493 570 595 10 19 11 18 17 -7 4 -14 5 -59 2
-100 -3 -40 -10 -217 -16 -393 -6 -176 -15 -403 -21 -505 -5 -102 -14 -313
-20 -470 -6 -157 -15 -341 -20 -410 -10 -137 -28 -472 -35 -675 -3 -71 -8
-151 -11 -177 -5 -42 -3 -50 20 -73 26 -26 28 -27 156 -23 85 2 133 7 141 15
10 10 10 36 -2 125 -9 76 -14 210 -14 413 l1 300 26 55 c29 60 143 220 156
220 19 0 272 -304 272 -326 0 -2 25 -42 55 -89 30 -46 55 -87 55 -90 0 -3 20
-36 45 -75 25 -39 45 -73 45 -75 0 -8 120 -188 150 -224 8 -11 35 -45 59 -77
56 -74 139 -143 215 -178 52 -25 68 -28 140 -24 131 6 218 62 328 211 64 86
82 114 165 273 69 132 77 164 41 164 -18 0 -39 -24 -93 -106 -104 -157 -213
-249 -320 -270 -71 -13 -221 76 -320 192 -45 53 -109 138 -165 219 -29 42
-130 206 -130 211 0 20 -238 381 -298 452 -41 49 -44 55 -32 78 24 44 152 166
258 244 114 85 197 130 285 155 70 20 84 40 60 89 -44 92 -233 87 -399 -10
-82 -48 -193 -161 -314 -319 -14 -18 -59 -77 -100 -131 -91 -120 -100 -132
-122 -156 -10 -10 -18 -23 -18 -29 0 -5 -4 -7 -10 -4 -13 8 -13 264 0 710 12
438 30 930 35 970 2 17 9 84 15 150 6 66 15 152 20 190 5 39 14 126 20 195 6
69 15 166 21 215 47 438 50 488 35 504 -16 15 -56 9 -78 -12 -7 -7 -74 -53
-148 -102 -74 -50 -138 -94 -142 -100 -13 -17 -9 -61 9 -96 37 -71 25 -440
-18 -606 -57 -218 -180 -413 -420 -665 -102 -106 -326 -305 -386 -341 -7 -5
-49 20 -105 61 -91 67 -294 202 -304 202 -2 0 -23 12 -45 26 -70 44 -176 101
-479 256 -474 244 -643 357 -768 511 -160 201 -223 418 -176 617 25 106 26
110 35 116 5 3 9 12 9 20 0 28 86 148 147 206 101 95 246 178 403 231 135 45
177 51 350 51 150 -1 173 -3 255 -28 207 -64 397 -193 488 -332 18 -27 39 -50
48 -52 29 -5 49 26 50 81 1 29 5 66 8 82 24 102 -162 255 -415 340 -160 54
-238 67 -424 70 -96 2 -188 1 -205 -1z m1003 -2889 c73 -69 182 -206 182 -229
0 -3 11 -29 25 -58 56 -121 81 -304 65 -489 -9 -106 -30 -217 -50 -264 -5 -11
-20 -52 -34 -91 -30 -81 -103 -211 -161 -287 -133 -173 -358 -333 -570 -404
-175 -59 -305 -76 -408 -54 -23 5 -73 14 -112 21 -290 48 -563 218 -654 405
-46 93 -55 132 -54 240 1 190 62 336 197 471 61 60 183 154 201 154 3 0 22 11
43 24 43 27 175 94 453 230 108 53 252 126 320 162 141 75 139 74 234 132 182
111 200 122 216 122 9 0 57 -38 107 -85z"/>
<path d="M8415 4247 c-55 -27 -140 -64 -189 -81 -103 -36 -124 -57 -86 -86 13
-10 37 -21 52 -24 15 -3 42 -19 60 -35 l33 -29 0 -1004 c0 -1077 -2 -1110 -50
-1162 -21 -23 -79 -46 -117 -46 -22 0 -48 -38 -40 -59 14 -39 26 -40 383 -41
374 0 379 1 366 52 -6 22 -61 48 -102 48 -8 0 -35 10 -59 22 -73 35 -76 51
-76 374 0 304 -1 299 62 273 92 -38 227 -175 598 -608 58 -68 119 -130 135
-139 25 -14 70 -18 277 -20 258 -3 288 1 288 38 0 23 -28 40 -68 40 -62 0
-158 43 -250 112 -107 81 -235 214 -462 483 -81 96 -121 142 -202 228 -21 22
-38 43 -38 47 0 27 319 351 420 427 66 50 187 114 250 132 116 34 125 38 129
56 8 42 -16 45 -346 45 l-313 0 -15 -24 c-19 -28 -11 -53 18 -62 42 -12 87
-54 87 -80 0 -46 -70 -136 -220 -284 -163 -161 -306 -280 -337 -280 -11 0 -13
157 -13 843 0 904 0 891 -50 893 -14 1 -70 -21 -125 -49z"/>
<path d="M7655 4248 c-201 -49 -379 -166 -503 -330 -101 -134 -148 -280 -160
-498 l-7 -135 -120 -3 c-140 -3 -155 -11 -155 -78 0 -24 6 -46 13 -51 6 -4 68
-10 137 -13 l125 -5 0 -620 c0 -561 -2 -624 -17 -657 -21 -47 -59 -71 -143
-88 -55 -12 -66 -17 -72 -38 -3 -13 0 -29 6 -35 9 -9 113 -13 374 -15 199 -2
372 0 385 3 23 6 43 40 35 61 -2 6 -30 16 -61 23 -119 25 -165 45 -187 82 -19
33 -20 50 -20 652 0 341 3 623 6 629 4 6 81 9 197 8 105 0 202 2 216 6 45 11
79 90 50 118 -13 14 -49 16 -239 16 -169 0 -224 3 -227 13 -3 6 -4 118 -3 247
1 173 5 246 15 275 21 60 74 140 112 168 71 53 98 62 198 62 97 0 150 -13 231
-56 64 -34 76 -28 115 55 19 41 34 84 34 95 0 28 -91 88 -161 106 -60 16 -115
17 -174 3z"/>
<path d="M3445 4160 c-16 -5 -64 -16 -105 -26 -128 -30 -250 -94 -338 -179
-43 -40 -84 -86 -92 -102 -8 -15 -21 -39 -30 -53 -16 -25 -42 -99 -55 -155
-15 -60 -14 -198 0 -267 23 -107 68 -191 149 -273 109 -110 158 -142 436 -279
209 -104 223 -111 315 -171 167 -108 242 -212 271 -378 8 -46 -12 -157 -39
-217 -72 -157 -221 -266 -400 -292 -184 -26 -384 38 -503 162 -50 51 -134 162
-134 176 0 3 -8 18 -18 32 -10 15 -29 53 -42 86 -30 75 -54 98 -86 84 -28 -13
-26 3 -24 -288 1 -131 5 -199 13 -209 10 -11 75 -44 162 -82 125 -53 353 -99
488 -99 62 1 197 20 270 38 167 43 363 167 453 288 16 21 32 41 35 44 13 10
76 137 93 190 28 80 33 265 11 350 -50 194 -153 300 -435 447 -290 152 -327
171 -360 190 -254 145 -336 235 -362 399 -18 121 19 249 98 328 90 90 216 136
376 136 116 0 198 -23 285 -79 92 -59 154 -148 226 -323 20 -47 53 -66 75 -44
17 17 18 89 4 331 l-7 110 -40 20 c-47 25 -151 58 -250 80 -38 8 -89 20 -113
25 -50 12 -284 12 -327 0z"/>
<path d="M5475 3345 c-148 -23 -309 -86 -429 -168 -159 -108 -295 -300 -336
-477 -7 -30 -16 -68 -21 -84 -14 -46 -10 -244 6 -321 63 -302 252 -519 536
-616 92 -31 248 -48 334 -37 250 33 417 104 578 248 29 25 120 144 145 188 81
146 105 246 105 442 -1 129 -4 157 -27 231 -51 166 -142 305 -263 402 -120 96
-274 165 -439 196 -70 13 -82 13 -189 -4z m165 -158 c102 -34 206 -115 274
-210 88 -125 128 -249 145 -441 28 -319 -61 -576 -242 -696 -78 -52 -124 -63
-245 -58 -149 6 -212 36 -337 162 -49 50 -100 111 -112 136 -52 109 -64 140
-84 220 -17 67 -22 116 -23 235 -1 181 13 255 71 384 71 158 176 251 316 281
51 11 189 4 237 -13z"/>
<path d="M10790 3345 c-80 -15 -99 -20 -177 -57 -207 -96 -433 -315 -433 -421
0 -43 37 -59 144 -65 106 -5 103 -8 125 83 48 195 141 285 300 294 77 3 129
-8 191 -43 58 -32 72 -48 103 -116 26 -58 30 -77 34 -200 6 -133 5 -136 -18
-162 -31 -34 -83 -60 -314 -153 -338 -137 -447 -192 -518 -260 -65 -62 -90
-112 -95 -193 -12 -180 90 -329 265 -388 70 -24 225 -21 292 4 57 22 191 97
304 170 73 47 97 48 97 7 0 -34 22 -86 51 -120 99 -114 275 -103 448 27 65 48
71 55 71 84 0 28 -20 35 -62 23 -81 -23 -177 6 -205 61 -10 19 -13 135 -13
477 0 571 -8 636 -98 764 -62 89 -181 158 -320 184 -86 17 -83 17 -172 0z
m288 -1065 c4 -264 -5 -289 -124 -356 -184 -103 -363 -98 -458 13 -43 49 -56
80 -62 142 -17 163 78 241 431 355 124 41 139 44 175 43 l35 -2 3 -195z"/>
</g>
</svg>
